<?xml version="1.0" standalone="no"?>
<!DOCTYPE svg PUBLIC "-//W3C//DTD SVG 20010904//EN"
 "http://www.w3.org/TR/2001/REC-SVG-20010904/DTD/svg10.dtd">
<svg version="1.0" xmlns="http://www.w3.org/2000/svg"
 width="650.000000pt" height="651.000000pt" viewBox="0 0 650.000000 651.000000"
 preserveAspectRatio="xMidYMid meet">
<metadata>
Created by potrace 1.16, written by Peter Selinger 2001-2019
</metadata>
<g transform="translate(0.000000,651.000000) scale(0.100000,-0.100000)"
fill="#000000" stroke="none">
<path d="M3713 5210 c-340 -29 -652 -166 -887 -390 -75 -72 -221 -248 -212
-257 1 -1 35 28 75 65 114 105 234 187 386 262 270 134 521 176 801 135 423
-63 779 -296 957 -626 110 -202 181 -481 196 -764 6 -123 7 -128 19 -90 20 63
42 241 42 343 1 452 -167 827 -477 1067 -255 197 -560 283 -900 255z"/>
<path d="M2265 4459 l-100 -50 -77 16 c-43 9 -92 15 -110 13 -35 -3 -30 2
-325 -380 -135 -175 -209 -258 -232 -258 -9 0 -41 20 -71 45 -30 25 -65 45
-77 45 -59 0 -308 -350 -521 -731 -77 -138 -195 -369 -188 -369 3 0 24 35 47
78 67 121 194 323 261 414 75 101 287 357 346 416 58 59 74 55 140 -38 30 -41
57 -76 62 -78 4 -2 65 70 136 160 172 217 361 443 417 497 44 42 48 44 89 37
124 -20 122 -20 207 19 45 20 89 35 98 33 15 -3 462 -720 463 -742 0 -8 -85
-89 -158 -151 l-34 -28 -54 26 c-70 35 -91 34 -144 -4 -44 -32 -222 -210 -216
-217 2 -1 52 29 112 68 60 38 118 70 129 70 11 0 51 -21 89 -45 38 -25 73 -45
77 -45 9 0 5 -3 269 216 286 238 430 353 462 370 25 13 35 11 124 -22 53 -20
110 -37 127 -38 28 -1 34 4 54 47 13 26 30 50 38 53 21 8 115 -47 624 -364
l445 -277 105 -109 c225 -233 222 -230 320 -279 51 -26 105 -47 119 -47 21 0
47 22 117 95 49 53 95 95 101 95 19 0 201 -157 238 -206 42 -54 45 -78 14 -98
-53 -33 -171 -39 -1105 -56 -464 -9 -983 -27 -1278 -45 -912 -55 -1702 -147
-1843 -213 -47 -22 -53 -52 -16 -81 36 -29 81 -40 209 -52 61 -6 151 -19 200
-29 59 -12 157 -21 285 -25 107 -3 368 -15 580 -25 212 -11 501 -23 642 -27
241 -6 258 -5 285 13 39 26 133 23 253 -10 52 -14 120 -32 150 -40 70 -19 267
-36 410 -36 99 0 116 3 162 26 70 35 127 30 207 -20 47 -29 69 -36 109 -36 85
0 94 -43 17 -79 -69 -32 -165 -56 -530 -132 -1720 -356 -1699 -350 -1779 -439
-40 -44 -49 -75 -13 -44 36 33 68 50 143 77 177 64 921 195 1429 252 788 88
1187 156 1338 225 21 11 27 20 27 47 0 27 -7 38 -39 61 -51 37 -91 52 -291
107 -232 64 -437 91 -975 130 -396 28 -571 35 -1050 45 -661 13 -807 19 -905
37 -82 15 -118 14 -300 -2 -73 -7 -115 8 -115 40 0 27 55 40 231 54 201 16
860 49 1134 56 366 9 542 22 603 45 76 27 126 39 216 50 71 9 100 7 263 -20
208 -34 270 -37 384 -14 65 13 106 14 220 8 268 -17 1036 10 1192 42 17 4 32
12 32 20 0 36 -722 624 -766 624 -8 0 -43 -27 -79 -60 -35 -32 -75 -62 -88
-65 -53 -14 -256 105 -1132 660 -582 369 -538 344 -572 325 -16 -9 -39 -37
-53 -63 -14 -26 -30 -47 -37 -47 -7 0 -29 11 -49 25 -44 30 -76 39 -107 31
-25 -6 -201 -144 -336 -264 -69 -61 -86 -72 -96 -60 -7 7 -65 97 -128 200
-151 244 -321 498 -370 554 -50 56 -65 56 -192 -7z"/>
</g>
</svg>
